<?xml version="1.0" standalone="no"?>
<!DOCTYPE svg PUBLIC "-//W3C//DTD SVG 20010904//EN"
 "http://www.w3.org/TR/2001/REC-SVG-20010904/DTD/svg10.dtd">
<svg version="1.0" xmlns="http://www.w3.org/2000/svg"
 width="490.000000pt" height="490.000000pt" viewBox="0 0 490.000000 490.000000"
 preserveAspectRatio="xMidYMid meet">
<metadata>
Created by potrace 1.11, written by Peter Selinger 2001-2013
</metadata>
<g transform="translate(0.000000,490.000000) scale(0.100000,-0.100000)"
fill="#000000" stroke="none">
<path d="M2050 4890 c-461 -44 -866 -186 -1240 -435 -327 -217 -587 -499 -765
-827 l-47 -88 300 0 300 0 63 88 c80 109 259 295 364 377 373 291 819 445
1288 445 242 0 438 -31 662 -105 741 -243 1274 -872 1380 -1631 17 -117 19
-379 4 -499 -81 -665 -503 -1251 -1114 -1551 -321 -157 -640 -224 -1005 -211
-321 11 -580 77 -860 217 -285 143 -520 337 -703 583 l-81 107 -298 0 -298 0
31 -62 c123 -243 356 -528 583 -713 260 -210 599 -387 921 -480 390 -112 867
-136 1275 -64 825 145 1496 634 1844 1343 112 229 183 453 223 707 25 161 25
557 0 719 -123 777 -607 1438 -1317 1799 -374 191 -741 279 -1190 286 -124 2
-268 0 -320 -5z"/>
<path d="M1390 3265 l0 -235 900 0 900 0 0 235 0 235 -900 0 -900 0 0 -235z"/>
<path d="M1390 2435 l0 -235 900 0 900 0 0 235 0 235 -900 0 -900 0 0 -235z"/>
<path d="M1390 1615 l0 -235 900 0 900 0 0 235 0 235 -900 0 -900 0 0 -235z"/>
</g>
</svg>
