<?xml version="1.0" standalone="no"?>
<!DOCTYPE svg PUBLIC "-//W3C//DTD SVG 20010904//EN"
 "http://www.w3.org/TR/2001/REC-SVG-20010904/DTD/svg10.dtd">
<svg version="1.0" xmlns="http://www.w3.org/2000/svg"
 width="333.000000pt" height="333.000000pt" viewBox="0 0 333.000000 333.000000"
 preserveAspectRatio="xMidYMid meet">
<metadata>
Created by potrace 1.11, written by Peter Selinger 2001-2013
</metadata>
<g transform="translate(0.000000,333.000000) scale(0.100000,-0.100000)"
fill="#000000" stroke="none">
<path d="M1335 3324 c-286 -24 -547 -93 -750 -197 -118 -61 -325 -202 -452
-308 l-113 -94 68 -68 c37 -38 124 -122 193 -188 l127 -119 113 114 c199 199
415 316 702 378 148 32 446 32 594 0 287 -62 526 -193 719 -394 99 -103 152
-180 216 -313 203 -427 111 -921 -237 -1270 -151 -150 -323 -255 -534 -325
-160 -53 -285 -73 -461 -73 -356 0 -670 114 -931 336 -41 35 -97 92 -125 125
-27 34 -52 61 -55 61 -8 1 -393 -337 -397 -348 -4 -12 147 -152 244 -225 248
-185 552 -318 867 -377 142 -27 479 -37 624 -20 389 48 752 203 1044 447 246
205 432 512 499 823 71 330 45 696 -71 996 -77 199 -192 372 -358 535 -270
267 -602 426 -1011 485 -105 15 -420 27 -515 19z"/>
<path d="M1848 2174 c-90 -21 -157 -61 -234 -138 -103 -103 -144 -202 -144
-346 0 -139 40 -237 139 -342 257 -274 714 -178 842 178 30 83 31 244 1 326
-90 249 -345 385 -604 322z m200 -280 c142 -59 179 -260 66 -366 -88 -83 -211
-74 -296 20 -76 85 -76 199 0 284 65 72 151 95 230 62z"/>
<path d="M670 1690 l0 -480 140 0 140 0 0 351 0 351 61 -4 c72 -5 105 -32 94
-77 -9 -38 -27 -52 -74 -58 l-41 -6 0 -121 1 -121 69 -155 69 -155 150 -3 c83
-1 151 -1 151 2 0 2 -36 91 -80 197 l-80 192 41 44 c61 66 79 113 79 209 0 70
-4 89 -31 142 -43 87 -113 139 -217 161 -29 6 -146 11 -262 11 l-210 0 0 -480z"/>
</g>
</svg>
