<?xml version="1.0" standalone="no"?>
<!DOCTYPE svg PUBLIC "-//W3C//DTD SVG 20010904//EN"
 "http://www.w3.org/TR/2001/REC-SVG-20010904/DTD/svg10.dtd">
<svg version="1.0" xmlns="http://www.w3.org/2000/svg"
 width="700.000000pt" height="700.000000pt" viewBox="0 0 700.000000 700.000000"
 preserveAspectRatio="xMidYMid meet">
<metadata>
Created by potrace 1.11, written by Peter Selinger 2001-2013
</metadata>
<g transform="translate(0.000000,700.000000) scale(0.100000,-0.100000)"
fill="#000000" stroke="none">
<path d="M2830 6993 c-644 -45 -1205 -198 -1689 -461 -327 -177 -738 -474
-1059 -763 l-52 -47 378 -364 c207 -201 393 -379 413 -396 l37 -32 58 72 c78
98 280 299 384 382 196 157 482 325 712 420 523 215 1122 280 1693 185 715
-120 1349 -483 1774 -1017 221 -278 400 -648 470 -972 66 -309 68 -664 6 -963
-119 -573 -461 -1096 -965 -1476 -959 -723 -2341 -785 -3384 -152 -243 147
-500 367 -674 576 -41 50 -78 91 -82 93 -4 1 -197 -165 -430 -369 l-423 -373
114 -110 c405 -394 827 -673 1336 -885 419 -173 819 -273 1293 -323 187 -19
697 -16 880 5 593 71 1119 239 1615 516 633 354 1109 831 1402 1407 238 466
346 892 360 1424 24 908 -223 1671 -745 2304 -112 136 -360 378 -507 496 -619
495 -1343 759 -2243 820 -139 9 -559 11 -672 3z"/>
<path d="M4023 4599 c-309 -30 -605 -212 -783 -481 -226 -343 -223 -811 7
-1156 130 -196 338 -354 558 -425 128 -41 191 -51 330 -51 242 0 452 70 642
213 488 368 562 1070 161 1540 -174 205 -409 331 -673 361 -100 11 -123 11
-242 -1z m222 -604 c158 -42 276 -164 320 -332 64 -245 -83 -506 -320 -568
-199 -51 -410 47 -502 236 -54 111 -65 207 -38 327 57 248 300 399 540 337z"/>
<path d="M1380 3546 l0 -1016 300 0 300 0 0 741 0 742 108 -5 c156 -7 206 -36
218 -131 4 -32 0 -53 -18 -87 -30 -58 -72 -80 -155 -80 l-63 0 0 -261 0 -262
147 -328 146 -329 314 0 c172 0 313 3 313 6 0 4 -77 191 -170 416 l-171 410
68 68 c149 149 214 334 192 542 -26 239 -193 451 -415 529 -132 47 -176 50
-656 56 l-458 5 0 -1016z"/>
</g>
</svg>
