<?xml version="1.0" standalone="no"?>
<!DOCTYPE svg PUBLIC "-//W3C//DTD SVG 20010904//EN"
 "http://www.w3.org/TR/2001/REC-SVG-20010904/DTD/svg10.dtd">
<svg version="1.0" xmlns="http://www.w3.org/2000/svg"
 width="700.000000pt" height="700.000000pt" viewBox="0 0 700.000000 700.000000"
 preserveAspectRatio="xMidYMid meet">
<metadata>
Created by potrace 1.11, written by Peter Selinger 2001-2013
</metadata>
<g transform="translate(0.000000,700.000000) scale(0.100000,-0.100000)"
fill="#000000" stroke="none">
<path d="M3365 6986 c-63 -13 -100 -28 -730 -291 -220 -93 -425 -178 -455
-190 -154 -62 -308 -127 -332 -141 -15 -8 -31 -15 -35 -16 -12 -1 -358 -142
-448 -183 -16 -7 -124 -52 -240 -100 -116 -47 -223 -92 -240 -100 -16 -7 -86
-36 -155 -65 -69 -28 -150 -65 -180 -82 -155 -87 -264 -231 -311 -412 -17 -64
-19 -98 -14 -331 3 -143 7 -278 9 -300 2 -22 7 -80 11 -130 4 -49 9 -99 11
-110 2 -11 6 -47 9 -80 3 -33 8 -71 10 -85 2 -14 7 -45 10 -70 6 -45 41 -254
50 -300 3 -14 9 -47 15 -75 6 -27 12 -60 15 -73 2 -13 6 -31 9 -40 3 -9 8 -35
12 -57 3 -22 8 -43 11 -48 2 -4 6 -17 9 -30 6 -32 30 -124 49 -187 15 -53 20
-69 29 -107 15 -58 113 -340 161 -463 113 -290 222 -518 390 -815 39 -69 117
-193 184 -294 31 -46 61 -91 66 -100 25 -38 234 -312 279 -366 207 -245 472
-511 671 -672 318 -258 619 -447 939 -589 85 -38 122 -51 196 -71 45 -13 204
-10 266 4 187 42 559 242 879 472 77 55 256 194 291 226 6 6 44 39 85 75 103
89 370 358 460 461 430 495 691 921 986 1606 82 192 242 697 270 853 2 14 8
41 13 60 19 72 71 347 85 450 3 25 8 52 10 60 2 8 6 42 10 75 3 33 10 96 15
140 5 44 12 112 15 150 4 39 8 93 11 120 2 28 6 165 9 305 4 213 2 267 -11
325 -28 122 -88 229 -179 321 -95 95 -100 98 -780 379 -181 75 -343 142 -360
150 -16 7 -232 97 -480 200 -247 102 -463 192 -480 200 -33 15 -236 99 -360
150 -44 18 -150 62 -235 98 -85 36 -180 72 -210 81 -71 22 -238 28 -315 12z
m1105 -1282 c47 -20 99 -41 115 -49 60 -26 103 -44 265 -110 91 -38 183 -76
205 -85 22 -10 90 -38 150 -63 526 -219 690 -289 696 -298 4 -6 5 -25 4 -43
-2 -17 -6 -92 -9 -166 -4 -74 -9 -144 -11 -155 -2 -11 -7 -51 -10 -90 -6 -78
-34 -302 -40 -325 -2 -8 -7 -35 -10 -60 -7 -55 -61 -312 -82 -395 -8 -33 -16
-64 -17 -70 -33 -148 -160 -518 -246 -720 -143 -334 -378 -742 -558 -970 -4
-5 -29 -38 -56 -73 -118 -155 -351 -406 -487 -527 -96 -85 -181 -157 -244
-206 -77 -61 -319 -229 -330 -229 -3 0 -21 -11 -38 -24 -18 -13 -85 -52 -149
-86 l-118 -62 0 2605 0 2605 443 -185 c243 -101 480 -200 527 -219z"/>
</g>
</svg>
